<?xml version="1.0" encoding="utf-8" ?>
<svg baseProfile="full" height="100%" version="1.1" width="100%" xmlns="http://www.w3.org/2000/svg" xmlns:ev="http://www.w3.org/2001/xml-events" xmlns:xlink="http://www.w3.org/1999/xlink"><defs /><g id="hlines" stroke="black"><line x1="55mm" x2="51.00060921937443mm" y1="55mm" y2="54.93019037425086mm" /><line x1="51.00060921937443mm" x2="52.20814454773087mm" y1="54.93019037425086mm" y2="55.979884820635675mm" /><line x1="51.00060921937443mm" x2="52.244042757705586mm" y1="54.93019037425086mm" y2="53.923277748571124mm" /></g><g id="hlines" stroke="black"><line x1="70mm" x2="66.50152117144242mm" y1="55mm" y2="53.060761519014655mm" /><line x1="66.50152117144242mm" x2="67.0749098907149mm" y1="53.060761519014655mm" y2="54.554490201410175mm" /><line x1="66.50152117144242mm" x2="68.07212466495868mm" y1="53.060761519014655mm" y2="52.755467126412185mm" /></g><g id="hlines" stroke="black"><line x1="85mm" x2="82.5927399073918mm" y1="55mm" y2="51.80545795981083mm" /><line x1="82.5927399073918mm" x2="82.50900237740309mm" y1="51.80545795981083mm" y2="53.40326521541815mm" /><line x1="82.5927399073918mm" x2="84.15173201104818mm" y1="51.80545795981083mm" y2="52.16537964676101mm" /></g><g id="hlines" stroke="black"><line x1="100mm" x2="98.69772738217138mm" y1="55mm" y2="51.21792569760273mm" /><line x1="98.69772738217138mm" x2="98.1243386628989mm" y1="51.21792569760273mm" y2="52.71165437999825mm" /><line x1="98.69772738217138mm" x2="100.06919506329476mm" y1="51.21792569760273mm" y2="52.04198661745882mm" /></g><g id="hlines" stroke="black"><line x1="115mm" x2="114.65137702900937mm" y1="55mm" y2="51.01522120763302mm" /><line x1="114.65137702900937mm" x2="113.73365473084769mm" y1="51.01522120763302mm" y2="52.325864478495404mm" /><line x1="114.65137702900937mm" x2="115.78274787890784mm" y1="51.01522120763302mm" y2="52.14659205753149mm" /></g><g id="hlines" stroke="black"><line x1="130mm" x2="130.48747737362058mm" y1="55mm" y2="51.02981539343471mm" /><line x1="130.48747737362058mm" x2="129.3173114510299mm" y1="51.02981539343471mm" y2="52.12101276953471mm" /><line x1="130.48747737362058mm" x2="131.35889982964463mm" y1="51.02981539343471mm" y2="52.37168830214738mm" /></g><g id="hlines" stroke="black"><line x1="145mm" x2="146.16948681889096mm" y1="55mm" y2="51.17478097614786mm" /><line x1="146.16948681889096mm" x2="144.8276139101783mm" y1="51.17478097614786mm" y2="52.0462034321719mm" /><line x1="146.16948681889096mm" x2="146.7946566244738mm" y1="51.17478097614786mm" y2="52.64758874167177mm" /></g><g id="hlines" stroke="black"><line x1="160mm" x2="161.75348458715632mm" y1="55mm" y2="51.40482381480333mm" /><line x1="161.75348458715632mm" x2="160.29181185492814mm" y1="51.40482381480333mm" y2="52.05560244372461mm" /><line x1="161.75348458715632mm" x2="162.1405596201158mm" y1="51.40482381480333mm" y2="52.95729697684493mm" /></g><g id="hlines" stroke="black"><line x1="55mm" x2="51.00060921937443mm" y1="70mm" y2="69.93019037425087mm" /><line x1="51.00060921937443mm" x2="52.20814454773087mm" y1="69.93019037425087mm" y2="70.97988482063568mm" /><line x1="51.00060921937443mm" x2="52.244042757705586mm" y1="69.93019037425087mm" y2="68.92327774857112mm" /></g><g id="hlines" stroke="black"><line x1="70mm" x2="66.4682096285643mm" y1="70mm" y2="68.12211374885644mm" /><line x1="66.4682096285643mm" x2="67.06758017802976mm" y1="68.12211374885644mm" y2="69.6056079161633mm" /><line x1="66.4682096285643mm" x2="68.03324578973839mm" y1="68.12211374885644mm" y2="67.78945504354802mm" /></g><g id="hlines" stroke="black"><line x1="85mm" x2="82.53735409869736mm" y1="70mm" y2="66.8479569855731mm" /><line x1="82.53735409869736mm" x2="82.48151490397336mm" y1="66.8479569855731mm" y2="68.44698230880365mm" /><line x1="82.53735409869736mm" x2="84.10239025987146mm" y1="66.8479569855731mm" y2="67.18061569088152mm" /></g><g id="hlines" stroke="black"><line x1="100mm" x2="98.5665282018188mm" y1="70mm" y2="66.2656782940112mm" /><line x1="98.5665282018188mm" x2="98.04561915468734mm" y1="66.2656782940112mm" y2="67.7785080149701mm" /><line x1="98.5665282018188mm" x2="99.96591973324183mm" y1="66.2656782940112mm" y2="67.04137368640534mm" /></g><g id="hlines" stroke="black"><line x1="115mm" x2="114.51252262637941mm" y1="70mm" y2="66.02981539343472mm" /><line x1="114.51252262637941mm" x2="113.64110017035537mm" y1="66.02981539343472mm" y2="67.37168830214739mm" /><line x1="114.51252262637941mm" x2="115.68268854897008mm" y1="66.02981539343472mm" y2="67.12101276953472mm" /></g><g id="hlines" stroke="black"><line x1="130mm" x2="130.2790258949765mm" y1="70mm" y2="66.0097437989607mm" /><line x1="130.2790258949765mm" x2="129.1675725022421mm" y1="66.0097437989607mm" y2="67.16068747950254mm" /><line x1="130.2790258949765mm" x2="131.21948229864446mm" y1="66.0097437989607mm" y2="67.30417098996062mm" /></g><g id="hlines" stroke="black"><line x1="145mm" x2="145.96768758239867mm" y1="70mm" y2="66.11881709489602mm" /><line x1="145.96768758239867mm" x2="144.67326039139874mm" y1="66.11881709489602mm" y2="67.05927349856397mm" /><line x1="145.96768758239867mm" x2="146.6690814172612mm" y1="66.11881709489602mm" y2="67.55688756897469mm" /></g><g id="hlines" stroke="black"><line x1="160mm" x2="161.56292451395709mm" y1="70mm" y2="66.31798058619025mm" /><line x1="161.56292451395709mm" x2="160.1373140752557mm" y1="66.31798058619025mm" y2="67.04436538577352mm" /><line x1="161.56292451395709mm" x2="162.03071924151345mm" y1="66.31798058619025mm" y2="67.8480681957311mm" /></g><g id="hlines" stroke="black"><line x1="55mm" x2="51.00060921937443mm" y1="85mm" y2="84.93019037425087mm" /><line x1="51.00060921937443mm" x2="52.20814454773087mm" y1="84.93019037425087mm" y2="85.97988482063568mm" /><line x1="51.00060921937443mm" x2="52.244042757705586mm" y1="84.93019037425087mm" y2="83.92327774857112mm" /></g><g id="hlines" stroke="black"><line x1="70mm" x2="66.43597390324653mm" y1="85mm" y2="83.18403800104181mm" /><line x1="66.43597390324653mm" x2="67.06114370882938mm" y1="83.18403800104181mm" y2="84.65684576656571mm" /><line x1="66.43597390324653mm" x2="67.99496600690291mm" y1="83.18403800104181mm" y2="82.82411631409163mm" /></g><g id="hlines" stroke="black"><line x1="85mm" x2="82.37576388403797mm" y1="85mm" y2="81.98116167910891mm" /><line x1="82.37576388403797mm" x2="82.40368773433762mm" y1="81.98116167910891mm" y2="83.58091799135914mm" /><line x1="82.37576388403797mm" x2="83.95606522899018mm" y1="81.98116167910891mm" y2="82.23145682317327mm" /></g><g id="hlines" stroke="black"><line x1="100mm" x2="98.3730534276968mm" y1="85mm" y2="81.34581816942959mm" /><line x1="98.3730534276968mm" x2="97.9320336583896mm" y1="81.34581816942959mm" y2="82.88383688293091mm" /><line x1="98.3730534276968mm" x2="99.81112390177547mm" y1="81.34581816942959mm" y2="82.04721200429212mm" /></g><g id="hlines" stroke="black"><line x1="115mm" x2="114.30540728933228mm" y1="85mm" y2="81.06076898795116mm" /><line x1="114.30540728933228mm" x2="113.50540728933228mm" y1="81.06076898795116mm" y2="82.44640963400627mm" /><line x1="114.30540728933228mm" x2="115.53107839832265mm" y1="81.06076898795116mm" y2="82.08922916344963mm" /></g><g id="hlines" stroke="black"><line x1="130mm" x2="130.0mm" y1="85mm" y2="81.0mm" /><line x1="130.0mm" x2="128.97153982450155mm" y1="81.0mm" y2="82.22567110899037mm" /><line x1="130.0mm" x2="131.02846017549845mm" y1="81.0mm" y2="82.22567110899037mm" /></g><g id="hlines" stroke="black"><line x1="145mm" x2="145.69459271066773mm" y1="85mm" y2="81.06076898795116mm" /><line x1="145.69459271066773mm" x2="144.46892160167735mm" y1="81.06076898795116mm" y2="82.08922916344963mm" /><line x1="145.69459271066773mm" x2="146.49459271066775mm" y1="81.06076898795116mm" y2="82.44640963400627mm" /></g><g id="hlines" stroke="black"><line x1="160mm" x2="161.2360679774998mm" y1="85mm" y2="81.19577393481939mm" /><line x1="161.2360679774998mm" x2="159.87919102364953mm" y1="81.19577393481939mm" y2="82.04364475759252mm" /><line x1="161.2360679774998mm" x2="161.83543852696525mm" y1="81.19577393481939mm" y2="82.67926810212624mm" /></g><g id="hlines" stroke="black"><line x1="55mm" x2="51.00060921937443mm" y1="100mm" y2="99.93019037425087mm" /><line x1="51.00060921937443mm" x2="52.20814454773087mm" y1="99.93019037425087mm" y2="100.97988482063568mm" /><line x1="51.00060921937443mm" x2="52.244042757705586mm" y1="99.93019037425087mm" y2="98.92327774857112mm" /></g><g id="hlines" stroke="black"><line x1="70mm" x2="66.34581816942959mm" y1="100mm" y2="98.3730534276968mm" /><line x1="66.34581816942959mm" x2="67.04721200429212mm" y1="98.3730534276968mm" y2="99.81112390177547mm" /><line x1="66.34581816942959mm" x2="67.88383688293091mm" y1="98.3730534276968mm" y2="97.9320336583896mm" /></g><g id="hlines" stroke="black"><line x1="85mm" x2="82.17157287525382mm" y1="100mm" y2="97.17157287525382mm" /><line x1="82.17157287525382mm" x2="82.31102206365007mm" y1="97.17157287525382mm" y2="98.7654843922006mm" /><line x1="82.17157287525382mm" x2="83.7654843922006mm" y1="97.17157287525382mm" y2="97.31102206365007mm" /></g><g id="hlines" stroke="black"><line x1="100mm" x2="98.18403800104181mm" y1="100mm" y2="96.43597390324653mm" /><line x1="98.18403800104181mm" x2="97.82411631409163mm" y1="96.43597390324653mm" y2="97.99496600690291mm" /><line x1="98.18403800104181mm" x2="99.65684576656571mm" y1="96.43597390324653mm" y2="97.06114370882938mm" /></g><g id="hlines" stroke="black"><line x1="115mm" x2="114.03231241760133mm" y1="100mm" y2="96.11881709489602mm" /><line x1="114.03231241760133mm" x2="113.3309185827388mm" y1="96.11881709489602mm" y2="97.55688756897469mm" /><line x1="114.03231241760133mm" x2="115.32673960860124mm" y1="96.11881709489602mm" y2="97.05927349856397mm" /></g><g id="hlines" stroke="black"><line x1="130mm" x2="129.86040201319mm" y1="100mm" y2="96.00243669192362mm" /><line x1="129.86040201319mm" x2="128.87534365266893mm" y1="96.00243669192362mm" y2="97.26325389769437mm" /><line x1="129.86040201319mm" x2="130.93101098336416mm" y1="96.00243669192362mm" y2="97.19146841268746mm" /></g><g id="hlines" stroke="black"><line x1="145mm" x2="145.48747737362058mm" y1="100mm" y2="96.02981539343472mm" /><line x1="145.48747737362058mm" x2="144.31731145102992mm" y1="96.02981539343472mm" y2="97.12101276953472mm" /><line x1="145.48747737362058mm" x2="146.35889982964463mm" y1="96.02981539343472mm" y2="97.37168830214739mm" /></g><g id="hlines" stroke="black"><line x1="160mm" x2="161.03527618041008mm" y1="100mm" y2="96.13629669484372mm" /><line x1="161.03527618041008mm" x2="159.7246329095477mm" y1="96.13629669484372mm" y2="97.0540189930054mm" /><line x1="161.03527618041008mm" x2="161.7114653991952mm" y1="96.13629669484372mm" y2="97.58638915410236mm" /></g><g id="hlines" stroke="black"><line x1="55mm" x2="51.00243669192362mm" y1="115mm" y2="115.13959798681mm" /><line x1="51.00243669192362mm" x2="52.263253897694376mm" y1="115.13959798681mm" y2="116.12465634733105mm" /><line x1="51.00243669192362mm" x2="52.19146841268745mm" y1="115.13959798681mm" y2="114.06898901663583mm" /></g><g id="hlines" stroke="black"><line x1="70mm" x2="66.24122951685636mm" y1="115mm" y2="113.63191942669732mm" /><line x1="66.24122951685636mm" x2="67.04122951685636mm" y1="113.63191942669732mm" y2="115.01756007275243mm" /><line x1="66.24122951685636mm" x2="67.74473771011382mm" y1="113.63191942669732mm" y2="113.08468719737625mm" /></g><g id="hlines" stroke="black"><line x1="85mm" x2="81.93582222752408mm" y1="115mm" y2="112.42884956125384mm" /><line x1="81.93582222752408mm" x2="82.21365931179118mm" y1="112.42884956125384mm" y2="114.00454196607338mm" /><line x1="81.93582222752408mm" x2="83.53582222752408mm" y1="112.42884956125384mm" y2="112.42884956125384mm" /></g><g id="hlines" stroke="black"><line x1="100mm" x2="97.88032294306718mm" y1="115mm" y2="111.6078076153743mm" /><line x1="97.88032294306718mm" x2="97.65764598153108mm" y1="111.6078076153743mm" y2="113.19223652536081mm" /><line x1="97.88032294306718mm" x2="99.40201336913942mm" y1="111.6078076153743mm" y2="112.10223480637421mm" /></g><g id="hlines" stroke="black"><line x1="115mm" x2="113.76393202250021mm" y1="115mm" y2="111.19577393481939mm" /><line x1="113.76393202250021mm" x2="113.16456147303475mm" y1="111.19577393481939mm" y2="112.67926810212624mm" /><line x1="113.76393202250021mm" x2="115.12080897635049mm" y1="111.19577393481939mm" y2="112.04364475759252mm" /></g><g id="hlines" stroke="black"><line x1="130mm" x2="129.58188614692938mm" y1="115mm" y2="111.02191241852691mm" /><line x1="129.58188614692938mm" x2="128.6871775013762mm" y1="111.02191241852691mm" y2="112.34837253461498mm" /><line x1="129.58188614692938mm" x2="130.73282982747122mm" y1="111.02191241852691mm" y2="112.1333658112613mm" /></g><g id="hlines" stroke="black"><line x1="145mm" x2="145.2790258949765mm" y1="115mm" y2="111.0097437989607mm" /><line x1="145.2790258949765mm" x2="144.1675725022421mm" y1="111.0097437989607mm" y2="112.16068747950254mm" /><line x1="145.2790258949765mm" x2="146.21948229864446mm" y1="111.0097437989607mm" y2="112.30417098996062mm" /></g><g id="hlines" stroke="black"><line x1="160mm" x2="160.76323598150617mm" y1="115mm" y2="111.07349126620934mm" /><line x1="160.76323598150617mm" x2="159.51980244317502mm" y1="111.07349126620934mm" y2="112.08040389188909mm" /><line x1="160.76323598150617mm" x2="161.5389313739003mm" y1="111.07349126620934mm" y2="112.47288279763238mm" /></g><g id="hlines" stroke="black"><line x1="55mm" x2="51.02191241852691mm" y1="130mm" y2="130.41811385307062mm" /><line x1="51.02191241852691mm" x2="52.34837253461498mm" y1="130.41811385307062mm" y2="131.3128224986238mm" /><line x1="51.02191241852691mm" x2="52.1333658112613mm" y1="130.41811385307062mm" y2="129.26717017252878mm" /></g><g id="hlines" stroke="black"><line x1="70mm" x2="66.13629669484372mm" y1="130mm" y2="128.96472381958992mm" /><line x1="66.13629669484372mm" x2="67.0540189930054mm" y1="128.96472381958992mm" y2="130.2753670904523mm" /><line x1="66.13629669484372mm" x2="67.58638915410236mm" y1="128.96472381958992mm" y2="128.2885346008048mm" /></g><g id="hlines" stroke="black"><line x1="85mm" x2="81.68384970977984mm" y1="130mm" y2="127.763228386117mm" /><line x1="81.68384970977984mm" x2="82.12486947908702mm" y1="127.763228386117mm" y2="129.3012470996183mm" /><line x1="81.68384970977984mm" x2="83.27508474236907mm" y1="127.763228386117mm" y2="127.59598284488877mm" /></g><g id="hlines" stroke="black"><line x1="100mm" x2="97.48271843580065mm" y1="130mm" y2="126.89141615417212mm" /><line x1="97.48271843580065mm" x2="97.45479458550099mm" y1="126.89141615417212mm" y2="128.49117246642234mm" /><line x1="97.48271843580065mm" x2="99.05332192931691mm" y1="126.89141615417212mm" y2="127.1967105467746mm" /></g><g id="hlines" stroke="black"><line x1="115mm" x2="113.3730534276968mm" y1="130mm" y2="126.34581816942959mm" /><line x1="113.3730534276968mm" x2="112.9320336583896mm" y1="126.34581816942959mm" y2="127.88383688293091mm" /><line x1="113.3730534276968mm" x2="114.81112390177547mm" y1="126.34581816942959mm" y2="127.04721200429212mm" /></g><g id="hlines" stroke="black"><line x1="130mm" x2="129.16835323672896mm" y1="130mm" y2="126.08740959706478mm" /><line x1="129.16835323672896mm" x2="128.41719873627153mm" y1="126.08740959706478mm" y2="127.50012574563907mm" /><line x1="129.16835323672896mm" x2="130.42917044249972mm" y1="126.08740959706478mm" y2="127.07246795758583mm" /></g><g id="hlines" stroke="black"><line x1="145mm" x2="144.86040201319mm" y1="130mm" y2="126.00243669192362mm" /><line x1="144.86040201319mm" x2="143.87534365266893mm" y1="126.00243669192362mm" y2="127.26325389769437mm" /><line x1="144.86040201319mm" x2="145.93101098336416mm" y1="126.00243669192362mm" y2="127.19146841268746mm" /></g><g id="hlines" stroke="black"><line x1="160mm" x2="160.34862297099062mm" y1="130mm" y2="126.01522120763302mm" /><line x1="160.34862297099062mm" x2="159.21725212109214mm" y1="126.01522120763302mm" y2="127.14659205753149mm" /><line x1="160.34862297099062mm" x2="161.2663452691523mm" y1="126.01522120763302mm" y2="127.3258644784954mm" /></g><g id="hlines" stroke="black"><line x1="55mm" x2="51.06076898795117mm" y1="145mm" y2="145.69459271066773mm" /><line x1="51.06076898795117mm" x2="52.44640963400627mm" y1="145.69459271066773mm" y2="146.49459271066772mm" /><line x1="51.06076898795117mm" x2="52.08922916344963mm" y1="145.69459271066773mm" y2="144.46892160167738mm" /></g><g id="hlines" stroke="black"><line x1="70mm" x2="66.04924663761945mm" y1="145mm" y2="144.3742621398391mm" /><line x1="66.04924663761945mm" x2="67.09894108400427mm" y1="144.3742621398391mm" y2="145.58179746819553mm" /><line x1="66.04924663761945mm" x2="67.42071431874282mm" y1="144.3742621398391mm" y2="143.550201219983mm" /></g><g id="hlines" stroke="black"><line x1="85mm" x2="81.4682096285643mm" y1="145mm" y2="143.12211374885644mm" /><line x1="81.4682096285643mm" x2="82.06758017802976mm" y1="143.12211374885644mm" y2="144.6056079161633mm" /><line x1="81.4682096285643mm" x2="83.03324578973839mm" y1="143.12211374885644mm" y2="142.78945504354803mm" /></g><g id="hlines" stroke="black"><line x1="100mm" x2="97.12264079864539mm" y1="145mm" y2="142.22136651816402mm" /><line x1="97.12264079864539mm" x2="97.28988633987365mm" y1="142.22136651816402mm" y2="143.81260155075324mm" /><line x1="97.12264079864539mm" x2="98.71874327906112mm" y1="142.22136651816402mm" y2="142.33297687615462mm" /></g><g id="hlines" stroke="black"><line x1="115mm" x2="112.88032294306718mm" y1="145mm" y2="141.6078076153743mm" /><line x1="112.88032294306718mm" x2="112.65764598153108mm" y1="141.6078076153743mm" y2="143.1922365253608mm" /><line x1="112.88032294306718mm" x2="114.40201336913942mm" y1="141.6078076153743mm" y2="142.1022348063742mm" /></g><g id="hlines" stroke="black"><line x1="130mm" x2="128.5665282018188mm" y1="145mm" y2="141.2656782940112mm" /><line x1="128.5665282018188mm" x2="128.04561915468736mm" y1="141.2656782940112mm" y2="142.7785080149701mm" /><line x1="128.5665282018188mm" x2="129.96591973324183mm" y1="141.2656782940112mm" y2="142.04137368640534mm" /></g><g id="hlines" stroke="black"><line x1="145mm" x2="144.23676401849383mm" y1="145mm" y2="141.07349126620934mm" /><line x1="144.23676401849383mm" x2="143.4610686260997mm" y1="141.07349126620934mm" y2="142.47288279763237mm" /><line x1="144.23676401849383mm" x2="145.48019755682498mm" y1="141.07349126620934mm" y2="142.0804038918891mm" /></g><g id="hlines" stroke="black"><line x1="160mm" x2="159.7209741050235mm" y1="145mm" y2="141.0097437989607mm" /><line x1="159.7209741050235mm" x2="158.78051770135554mm" y1="141.0097437989607mm" y2="142.30417098996062mm" /><line x1="159.7209741050235mm" x2="160.8324274977579mm" y1="141.0097437989607mm" y2="142.16068747950254mm" /></g><g id="hlines" stroke="black"><line x1="55mm" x2="51.10251974085906mm" y1="160mm" y2="160.89980421737545mm" /><line x1="51.10251974085906mm" x2="52.52813017956044mm" y1="160.89980421737545mm" y2="161.62618901695873mm" /><line x1="51.10251974085906mm" x2="52.06542377790234mm" y1="160.89980421737545mm" y2="159.62198740129978mm" /></g><g id="hlines" stroke="black"><line x1="70mm" x2="66.01522120763302mm" y1="160mm" y2="159.65137702900935mm" /><line x1="66.01522120763302mm" x2="67.14659205753149mm" y1="159.65137702900935mm" y2="160.78274787890783mm" /><line x1="66.01522120763302mm" x2="67.3258644784954mm" y1="159.65137702900935mm" y2="158.7336547308477mm" /></g><g id="hlines" stroke="black"><line x1="85mm" x2="81.2656782940112mm" y1="160mm" y2="158.5665282018188mm" /><line x1="81.2656782940112mm" x2="82.04137368640534mm" y1="158.5665282018188mm" y2="159.96591973324183mm" /><line x1="81.2656782940112mm" x2="82.7785080149701mm" y1="158.5665282018188mm" y2="158.04561915468736mm" /></g><g id="hlines" stroke="black"><line x1="100mm" x2="96.76393202250021mm" y1="160mm" y2="157.64885899083012mm" /><line x1="96.76393202250021mm" x2="97.15100705545969mm" y1="157.64885899083012mm" y2="159.20133215287171mm" /><line x1="96.76393202250021mm" x2="98.36003450291592mm" y1="157.64885899083012mm" y2="157.53724863283952mm" /></g><g id="hlines" stroke="black"><line x1="115mm" x2="112.32347757456456mm" y1="160mm" y2="157.02742069809042mm" /><line x1="112.32347757456456mm" x2="112.37931676928856mm" y1="157.02742069809042mm" y2="158.626446021321mm" /><line x1="112.32347757456456mm" x2="113.90790648455108mm" y1="157.02742069809042mm" y2="157.25009765962653mm" /></g><g id="hlines" stroke="black"><line x1="130mm" x2="127.88032294306718mm" y1="160mm" y2="156.6078076153743mm" /><line x1="127.88032294306718mm" x2="127.65764598153108mm" y1="156.6078076153743mm" y2="158.1922365253608mm" /><line x1="127.88032294306718mm" x2="129.40201336913944mm" y1="156.6078076153743mm" y2="157.1022348063742mm" /></g><g id="hlines" stroke="black"><line x1="145mm" x2="143.3730534276968mm" y1="160mm" y2="156.3458181694296mm" /><line x1="143.3730534276968mm" x2="142.9320336583896mm" y1="156.3458181694296mm" y2="157.88383688293092mm" /><line x1="143.3730534276968mm" x2="144.81112390177546mm" y1="156.3458181694296mm" y2="157.04721200429213mm" /></g><g id="hlines" stroke="black"><line x1="160mm" x2="158.83051318110904mm" y1="160mm" y2="156.17478097614787mm" /><line x1="158.83051318110904mm" x2="158.2053433755262mm" y1="156.17478097614787mm" y2="157.64758874167177mm" /><line x1="158.83051318110904mm" x2="160.1723860898217mm" y1="156.17478097614787mm" y2="157.04620343217192mm" /></g></svg>